<?xml version="1.0" encoding="utf-8"?>
<!-- Generator: Adobe Illustrator 18.1.1, SVG Export Plug-In . SVG Version: 6.00 Build 0)  -->
<svg version="1.1" id="Layer_1" xmlns="http://www.w3.org/2000/svg" xmlns:xlink="http://www.w3.org/1999/xlink" x="0px" y="0px"
	 viewBox="0 30 140 30" enable-background="new 0 30 140 30" xml:space="preserve">
<path fill="#FFFFFF" d="M117.4,41.9c-0.5-1.1-0.9-2-1.6-2.8s-1.5-1.5-2.6-2.1c-0.9-0.5-2.1-0.8-3.3-0.8c-1.2,0-2.2,0.2-3.3,0.7
	c-0.7,0.4-1.4,0.8-2,1.4c-0.6-0.5-1.2-0.9-1.9-1.3c-0.9-0.5-2.1-0.8-3.3-0.8c-1.2,0-2.2,0.2-3.3,0.7c-0.9,0.5-1.9,1.2-2.6,2
	c-0.5,0.8-1.1,1.7-1.5,2.8s-0.6,2.2-0.6,3.3s0.2,2.2,0.6,3.3c0.5,1.1,0.9,2,1.8,2.8c0.7,0.8,1.5,1.5,2.6,2c0.9,0.5,2.1,0.8,3.3,0.8
	c1.2,0,2.2-0.2,3.2-0.7c0.7-0.4,1.4-0.8,2-1.4c0.6,0.5,1.2,0.9,1.9,1.3c0.9,0.5,2.1,0.8,3.3,0.8c1.2,0,2.2-0.2,3.2-0.7
	c0.9-0.5,1.9-1.2,2.6-1.9c0.7-0.8,1.3-1.8,1.8-2.8c0.5-1.1,0.6-2.2,0.6-3.4C117.9,44,117.8,42.9,117.4,41.9z M102.5,52.5
	c-0.9,0.5-1.9,0.7-2.9,0.7s-2.1-0.2-2.9-0.6c-0.9-0.5-1.8-1.1-2.3-1.8c-0.6-0.8-1.2-1.6-1.5-2.6c-0.4-0.9-0.6-2-0.6-3
	c0-0.9,0.1-2,0.5-2.9s0.8-1.9,1.5-2.6c0.6-0.8,1.4-1.4,2.2-1.9c0.9-0.5,1.9-0.7,2.9-0.7s2,0.2,2.9,0.6c0.6,0.2,1.2,0.7,1.8,1.2
	c0,0,0,0-0.1,0.1c-0.7,0.8-1.3,1.8-1.8,2.8s-0.6,2.2-0.6,3.3c0,1.2,0.2,2.2,0.6,3.3c0.5,1.1,0.9,2,1.8,2.8c0.1,0.1,0.1,0.1,0.1,0.1
	C103.5,51.8,103,52.2,102.5,52.5z M104.6,50.8L104.6,50.8c-0.7-0.8-1.2-1.8-1.5-2.6c-0.4-0.9-0.6-2-0.6-3c0-0.9,0.1-2,0.5-2.9
	s0.8-1.9,1.5-2.6c0.1-0.1,0.1-0.1,0.1-0.1s0,0,0.1,0.1c0.6,0.8,1.2,1.6,1.5,2.6c0.4,0.9,0.6,2,0.6,3c0,0.9-0.1,2-0.5,2.9
	s-0.8,1.9-1.5,2.6C104.7,50.7,104.7,50.7,104.6,50.8z M116.6,48.1c-0.4,0.9-0.8,1.9-1.5,2.6c-0.6,0.8-1.4,1.4-2.2,1.9
	c-0.9,0.5-1.9,0.7-2.9,0.7c-1.1,0-2.1-0.2-2.9-0.6c-0.6-0.2-1.2-0.7-1.8-1.2l0.1-0.1c0.7-0.8,1.3-1.8,1.8-2.8
	c0.5-1.1,0.6-2.2,0.6-3.4c0-1.1-0.2-2.1-0.6-3.2c-0.5-1.1-0.9-2-1.6-2.8c-0.1-0.1-0.1-0.1-0.1-0.1c0.5-0.5,0.9-0.8,1.6-1.2
	c0.9-0.5,1.9-0.7,2.9-0.7c1.1,0,2,0.2,2.9,0.6c0.9,0.4,1.6,1.1,2.3,1.8c0.6,0.8,1.2,1.6,1.5,2.6c0.4,0.9,0.6,2,0.6,3
	C117.2,46.1,117,47.1,116.6,48.1z"/>
<polygon fill="#FFFFFF" points="34.8,36.4 34.8,37.2 23.5,37.2 23.5,36.4 "/>
<rect x="23.5" y="44.6" fill="#FFFFFF" width="9.9" height="0.8"/>
<path fill="#FFFFFF" d="M18.9,51.7c-0.5,0.5-1.1,0.9-1.8,1.3c-0.6,0.4-1.3,0.6-2,0.8C14.4,53.9,13.7,54,13,54
	c-1.2,0-2.2-0.2-3.3-0.8c-0.9-0.5-1.9-1.2-2.6-2.1c-0.7-0.9-1.3-1.8-1.8-2.9C5,47.1,4.9,46,4.9,44.9s0.2-2.1,0.6-3.2
	c0.4-1.1,0.9-2,1.6-2.8s1.5-1.5,2.6-2c0.9-0.5,2.2-0.8,3.5-0.8c1.5,0,2.9,0.4,4,1.1c1,0.7,1.8,1.7,2.4,2.8l-0.7,0.4
	c-0.4-0.6-0.7-1.2-1.2-1.5c-0.5-0.4-0.9-0.8-1.4-1.1c-0.5-0.2-1.1-0.5-1.5-0.6c-0.6-0.1-1.1-0.1-1.6-0.1c-1.2,0-2.2,0.2-3.2,0.7
	c-0.9,0.5-1.7,1.1-2.2,1.9c-0.6,0.8-1.1,1.6-1.4,2.6S6,44.1,6,45.2c0,1.1,0.2,2.1,0.6,3s0.9,1.9,1.5,2.6c0.6,0.7,1.4,1.4,2.3,1.8
	c0.9,0.5,1.9,0.6,2.9,0.6c0.6,0,1.2-0.1,1.8-0.2s1.2-0.4,1.8-0.6c0.6-0.2,1.1-0.6,1.5-1.1c0.5-0.5,0.8-0.9,1.2-1.6l0.7,0.2
	C19.9,50.7,19.4,51.2,18.9,51.7z"/>
<polygon fill="#FFFFFF" points="35.1,53.9 23.5,53.9 23.5,53 35.1,53 "/>
<rect x="54.7" y="36.4" fill="#FFFFFF" width="0.8" height="17.4"/>
<polygon fill="#FFFFFF" points="82.1,53.9 81.2,53.9 77.2,44.6 73.3,53.9 72.4,53.9 64.8,36.4 65.8,36.4 72.8,52.9 76.8,43.8 
	73.6,36.5 74.5,36.5 77.2,42.9 80,36.5 80.9,36.5 77.7,43.8 81.7,52.9 88.7,36.4 89.6,36.4 "/>
<path fill="#FFFFFF" d="M134.9,41.7c-0.4-1.1-0.8-2-1.5-2.8s-1.5-1.4-2.6-1.9s-2.2-0.7-3.6-0.7h-5.6v17.5h5.6c1.3,0,2.5-0.2,3.4-0.6
	c0.9-0.5,1.9-0.9,2.6-1.8c0.7-0.8,1.3-1.8,1.6-2.8c0.4-1.1,0.6-2.2,0.6-3.6C135.5,43.9,135.3,42.8,134.9,41.7z M134.2,48.2
	c-0.2,0.9-0.8,1.9-1.4,2.6c-0.6,0.7-1.4,1.3-2.3,1.8c-0.9,0.5-2,0.6-3.2,0.6h-4.8v-16h4.8c1.2,0,2.2,0.2,3.2,0.6
	c0.9,0.5,1.8,0.9,2.3,1.6c0.6,0.7,1.2,1.5,1.4,2.5c0.4,0.9,0.5,2.1,0.5,3.2C134.7,46.2,134.6,47.3,134.2,48.2z"/>
<path fill="#FFFFFF" d="M50.8,53.9L46.4,47c0.6-0.1,1.2-0.2,1.8-0.6c0.5-0.2,0.9-0.7,1.4-1.2c0.4-0.5,0.7-0.9,0.9-1.6
	c0.2-0.6,0.2-1.3,0.2-1.9c0-0.6-0.1-1.3-0.4-1.9c-0.3-0.6-0.6-1.2-1.1-1.8c-0.5-0.5-0.9-0.9-1.5-1.2s-1.3-0.5-2-0.5h-7.1V54h0.8
	v-6.8h6.1l4.3,6.8l0,0C50,53.9,50.8,53.9,50.8,53.9z M39.5,46.3v-9.1h6.3c0.6,0,1.2,0.1,1.6,0.4c0.4,0.3,0.9,0.6,1.4,0.9
	c0.4,0.5,0.7,0.9,0.9,1.4c0.2,0.6,0.4,1.2,0.4,1.8s-0.1,1.2-0.2,1.8c-0.2,0.6-0.5,1.1-0.8,1.5c-0.4,0.5-0.8,0.8-1.3,1.1
	s-1.1,0.5-1.6,0.5C46,46.3,39.5,46.3,39.5,46.3z"/>
</svg>
